<?xml version="1.0" encoding="utf-8"?>
<!-- Svg Vector Icons : http://www.onlinewebfonts.com/icon -->
<!DOCTYPE svg PUBLIC "-//W3C//DTD SVG 1.1//EN" "http://www.w3.org/Graphics/SVG/1.1/DTD/svg11.dtd">
<svg version="1.1" xmlns="http://www.w3.org/2000/svg" xmlns:xlink="http://www.w3.org/1999/xlink" x="0px" y="0px" viewBox="0 0 1000 1000" enable-background="new 0 0 1000 1000" xml:space="preserve">
<metadata> Svg Vector Icons : http://www.onlinewebfonts.com/icon </metadata>
<g><g transform="translate(0.000000,477.000000) scale(0.100000,-0.100000)"><path d="M1033.7,4313.4c-55.6-15.3-138-46-182.1-69c-111.2-55.6-268.4-208.9-327.8-320.1c-115-210.8-109.3-46-109.3-3266.2c0-1621.6-7.7-2948.1-15.3-2948.1c-38.3,0-207-191.7-251.1-287.5c-42.2-88.2-49.8-130.3-47.9-268.3c1.9-195.5,42.2-299,164.8-433.2c254.9-277.9,678.5-281.8,952.6-5.8c111.2,111.2,164.9,251.1,164.9,429.4c0,84.3-5.7,170.6-13.4,191.7c-13.4,32.6,233.9,287.5,1591,1644.6L4564.5,585.2l69-46c166.8-113.1,448.5-139.9,617.2-57.5l72.8,34.5l368-368l369.9-370l-46-138c-36.4-109.3-44.1-161-34.5-249.2c26.8-260.7,193.6-475.4,437-561.6c134.2-47.9,341.2-38.3,471.5,21.1c134.2,61.3,258.8,180.2,323.9,306.7c72.8,139.9,82.4,352.7,24.9,511.8l-42.2,116.9l485,486.9c268.4,268.4,657.5,651.7,866.4,853l379.5,366.1l69-32.6c38.3-19.2,111.2-38.3,162.9-44.1l92-11.5l-3.8-2762.1l-5.7-2762.1l-42.2-76.7c-47.9-90.1-141.8-182.1-235.8-231.9c-55.6-30.7-120.7-36.4-377.6-42.2l-312.4-7.7v2204.3c0,1558.4-5.8,2219.7-21.1,2263.8c-24.9,70.9-67.1,97.8-157.2,97.8c-42.2,0-78.6-15.3-105.4-44.1l-42.2-44.1v-2236.9v-2236.9h-498.4H6951v1418.4v1420.4l-47.9,46c-63.2,65.2-159.1,65.2-222.3-1.9l-46-49.8l-5.7-1416.5l-3.8-1416.5h-488.8h-488.8V-2405v2072.1l-47.9,46c-63.2,65.2-166.8,65.2-230,0l-47.9-46V-2405v-2070.2h-488.8h-488.8v2051c0,2183.2,1.9,2139.2-86.3,2173.7c-74.8,28.8-159.1,11.5-199.4-38.3c-40.2-51.7-40.2-55.6-40.2-2118.1v-2068.2h-488.8h-488.8l-3.8,1416.5l-5.7,1416.5l-46,49.8c-61.3,65.2-168.7,69-228.1,5.8l-42.2-44.1v-1422.3v-1422.3h-498.4h-498.4v360.4c0,350.8-1.9,362.3-44.1,400.6c-59.4,55.6-99.7,65.2-166.8,40.2c-101.6-34.5-115-90.1-115-467.7v-339.3l-147.6,9.6c-164.8,9.6-247.3,42.2-346.9,138c-88.2,80.5-139.9,187.8-151.4,310.5c-19.2,187.9-159.1,260.7-276,143.8c-40.2-40.2-55.6-74.7-55.6-120.8c0-95.8,51.8-277.9,109.3-383.4c59.4-109.3,216.6-264.5,327.8-320.1c201.3-103.5-9.6-97.7,4144.1-97.7c4203.5,0,3950.5-5.8,4163.3,109.3c109.3,59.4,264.5,216.6,320.1,327.8c101.6,199.4,97.7,82.4,97.7,3080.3l1.9,2779.4l65.2,47.9c88.2,63.2,195.5,220.4,230,335.4c113.1,373.8-157.2,774.4-555.9,824.2c-197.4,24.9-450.4-78.6-577-237.7c-130.4-162.9-178.3-429.4-111.2-605.7c17.3-42.2,34.5-93.9,40.3-115c5.7-30.7-170.6-214.7-854.9-887.5L6952.9,8.3l-63.2,32.6C6849.4,61.9,6767,77.3,6661.5,83c-138,7.7-178.3,1.9-264.5-34.5L6295.4,4.4l-369.9,369.9l-369.9,369.9l42.2,88.2c57.5,126.5,57.5,377.6-1.9,504.1c-149.5,327.8-540.5,477.3-862.6,331.6c-139.9-61.3-276-195.5-337.3-331.6c-42.2-93.9-57.5-322-28.8-425.5c13.4-46-116.9-180.2-1594.8-1658C1263.8-2255.5,1162.2-2353.3,1129.6-2324.5c-63.3,55.6-199.4,113.1-295.2,124.6l-93.9,11.5l3.8,2925.1l5.7,2925.1l42.2,76.7c47.9,90.1,141.8,182.1,235.8,231.9c65.2,34.5,205.1,36.4,3939,42.2c4318.6,5.8,3956.3,17.3,4115.4-126.5c134.2-120.8,155.3-187.9,168.7-498.4c9.6-260.7,11.5-277.9,55.6-312.4c67.1-53.7,147.6-46,214.7,19.2c55.6,55.6,55.6,57.5,55.6,283.7c0,346.9-57.5,521.4-231.9,705.4c-51.8,53.7-136.1,122.7-185.9,149.5c-212.8,116.9,42.2,109.3-4172.9,107.3C1729.6,4340.2,1118.1,4334.5,1033.7,4313.4z M9350.8,2367.9c88.2-24.9,201.3-147.6,218.5-237.7c26.9-145.7-40.2-293.3-164.8-360.4c-49.8-26.8-93.9-34.5-178.3-28.8c-178.3,11.5-281.8,113.1-297.1,289.4c-11.5,139.9,53.7,256.9,172.5,316.3C9193.6,2390.9,9247.3,2396.6,9350.8,2367.9z M5120.4,1373c199.3-90.1,262.6-323.9,134.2-492.6c-67.1-88.2-141.8-122.7-258.8-122.7c-116.9,0-191.7,34.5-258.8,122.7c-90.1,116.9-88.2,287.5,3.8,396.8c57.5,67.1,180.2,132.3,254.9,132.3C5022.6,1409.4,5078.2,1392.2,5120.4,1373z M6705.6-239c147.6-42.2,245.4-166.8,245.4-316.3c0-345-471.5-450.4-615.3-136.1c-19.2,44.1-36.4,105.4-36.4,136.1c0,32.6,17.2,92,36.4,136.1c47.9,107.3,138,168.7,289.4,197.4C6630.8-221.8,6667.3-229.4,6705.6-239z M882.3-2546.9c97.8-40.2,170.6-147.6,180.2-270.3c24.9-312.4-348.9-473.5-557.8-239.6C267-2794.1,552.6-2408.8,882.3-2546.9z"/></g></g>
</svg>