<?xml version="1.0" encoding="utf-8"?>
<!-- Svg Vector Icons : http://www.onlinewebfonts.com/icon -->
<!DOCTYPE svg PUBLIC "-//W3C//DTD SVG 1.1//EN" "http://www.w3.org/Graphics/SVG/1.1/DTD/svg11.dtd">
<svg version="1.1" xmlns="http://www.w3.org/2000/svg" xmlns:xlink="http://www.w3.org/1999/xlink" x="0px" y="0px" viewBox="0 0 1000 1000" enable-background="new 0 0 1000 1000" xml:space="preserve">
<metadata> Svg Vector Icons : http://www.onlinewebfonts.com/icon </metadata>
<g><g transform="translate(0.000000,511.000000) scale(0.100000,-0.100000)"><path d="M4539.8,4986.8C3162.2,4853,1914.3,4152.2,1077.7,3042.1C117.4,1768.3-156.1,83.2,349-1438.2c347.4-1040.2,1030.2-1930.7,1954.6-2547.6c439.2-293.5,1114.1-579,1617.2-688.8c924.4-197.7,1894.8-137.8,2737.3,169.7c279.5,101.8,800.6,363.4,1036.2,519.1c549.1,365.4,1030.2,848.5,1395.6,1397.6c155.7,233.6,419.3,756.7,519.1,1030.2c131.8,363.4,231.6,816.6,271.5,1245.8c113.8,1235.9-277.5,2511.7-1074.2,3502C7792.2,4453.7,6151,5144.5,4539.8,4986.8z M5717.8,4551.5c772.7-129.8,1449.5-427.3,2058.5-902.5c253.6-197.7,634.9-589,820.6-836.6c133.8-179.7,345.4-509.1,345.4-539.1c0-24-297.5,33.9-475.2,91.8c-195.7,61.9-409.3,187.7-678.8,393.3c-287.5,219.6-337.4,241.6-553.1,239.6c-225.6-2-609-65.9-998.3-165.7c-283.5-71.9-465.2-139.8-1263.8-471.2l-283.5-117.8l553.1-14c1154-27.9,1723-75.9,1854.8-157.7c187.7-115.8,293.5-565,247.6-1050.2c-51.9-553-115.8-591-826.6-497.1c-652.9,87.8-912.4,67.9-1138-85.8c-221.6-153.7-303.5-511.1-151.7-664.9c51.9-51.9,67.9-55.9,213.6-55.9c207.6,0,559-41.9,1289.8-147.7c858.5-127.8,946.4-137.8,1066.2-123.8c111.8,14,283.5,75.9,575,211.6c285.5,133.8,620.9,257.6,864.5,321.5c123.8,31.9,235.6,57.9,247.6,57.9c14,0,18-61.9,8-193.7c-81.9-1168-547.1-2172.3-1371.6-2970.9c-694.8-670.8-1503.4-1068.2-2483.7-1221.9c-307.5-47.9-972.3-47.9-1287.8,0c-1012.3,155.7-1880.8,605-2585.6,1333.7C1099.7-2326.7,700.4-1524.1,542.7-551.7c-53.9,331.4-47.9,1032.2,10,1367.7c85.9,497.1,199.7,850.5,413.3,1287.8c229.6,467.2,503.1,840.6,900.5,1229.9c752.7,732.7,1657.2,1148,2753.3,1263.8C4819.3,4617.4,5486.2,4589.5,5717.8,4551.5z"/><path d="M1684.7,1985.9c-73.9-31.9-139.8-103.8-167.7-177.7c-14-31.9-22-215.6-22-435.3V995.6h2835.1h2835.1v197.7c0,293.5-93.8,674.8-175.7,718.8c-137.8,73.9-1030.2,101.8-3288.4,99.8C2114,2011.9,1732.6,2007.9,1684.7,1985.9z"/><path d="M1499-699.5c6-1072.2,6-1098.1,47.9-1152c22-30,65.9-73.9,95.8-95.8c53.9-41.9,61.9-41.9,2954.9-47.9l2899-4l87.9,45.9c157.7,83.9,167.7,125.8,175.7,694.8l8,491.1l-149.7,12c-83.9,8-449.2,57.9-816.6,111.8c-814.6,121.8-1154,161.7-1369.6,161.7c-259.6,0-389.3,89.8-455.2,313.5c-51.9,175.7-27.9,325.4,87.9,551c4,8-798.6,14-1780.9,14H1495L1499-699.5z"/></g></g>
</svg>